<?xml version="1.0" encoding="utf-8"?>
<!-- Generator: Adobe Illustrator 26.3.1, SVG Export Plug-In . SVG Version: 6.00 Build 0)  -->
<svg version="1.1" id="Layer_1" xmlns="http://www.w3.org/2000/svg" xmlns:xlink="http://www.w3.org/1999/xlink" x="0px" y="0px"
	 viewBox="0 0 700 700" style="enable-background:new 0 0 700 700;" xml:space="preserve">
<style type="text/css">
	.st0{fill:#343F91;}
</style>
<path class="st0" d="M350,0C195.6,0,70,125.6,70,280s125.6,280,280,280s280-125.6,280-280S504.4,0,350,0z M565.2,168H456.5
	c-4.8-29.2-11.4-55.9-19.6-79c-5.6-15.8-12-29.7-19.2-41.9C481.9,65.6,534.9,109.8,565.2,168L565.2,168z M428,280
	c0,26.2-1.8,51-4.4,74.7H283.2c-2.6-23.7-4.4-48.5-4.4-74.7c0-26.2,1.8-51,4.4-74.7h140.3C426.2,229,428,253.8,428,280z M331.3,51.3
	c8.6-10.2,15.5-13.5,21.2-13.8c0.9,0,1.7,0.1,2.5,0.1c5.5,0.6,12.3,4,20.5,13.7c9,10.7,18.4,28,26.3,50.3
	c6.8,18.9,12.4,41.5,16.8,66.4H288.1c4.4-24.9,10-47.5,16.8-66.4C312.9,79.3,322.3,61.9,331.3,51.3L331.3,51.3z M290.2,45
	c-7.7,12.7-14.5,27.4-20.4,44c-8.2,23-14.8,49.8-19.6,79l-115.4,0C166.3,107.4,222.5,62.1,290.2,45L290.2,45z M107.3,280
	c0-26.1,4.2-51.2,11.8-74.7h126.1c-2.4,23.8-3.8,48.8-3.8,74.7s1.3,50.9,3.8,74.7H119.1C111.5,331.1,107.3,306.1,107.3,280z
	 M134.8,392h115.4c4.8,29.2,11.4,56,19.6,79.1c5.9,16.6,12.7,31.2,20.4,43.9C222.5,497.9,166.3,452.6,134.8,392L134.8,392z
	 M375.5,508.7c-8.1,9.6-14.9,13-20.4,13.6c-0.9,0-1.8,0.1-2.7,0.1c-5.7-0.3-12.6-3.6-21.2-13.8c-9-10.7-18.4-27.9-26.3-50.2
	c-6.8-18.9-12.5-41.6-16.8-66.5h130.5c-4.4,25-10,47.6-16.8,66.5C393.9,480.8,384.5,498.1,375.5,508.7L375.5,508.7z M417.7,512.9
	c7.2-12.2,13.5-26.1,19.2-41.8c8.2-23.1,14.9-49.8,19.7-79.1h108.6C534.9,450.2,481.9,494.4,417.7,512.9L417.7,512.9z M461.5,354.7
	c2.4-23.8,3.8-48.7,3.8-74.7s-1.3-50.9-3.8-74.7h119.3c7.6,23.5,11.8,48.6,11.8,74.7s-4.2,51.1-11.8,74.7H461.5z"/>
</svg>
