<?xml version="1.0" encoding="utf-8"?>
<!-- Generator: Adobe Illustrator 26.3.1, SVG Export Plug-In . SVG Version: 6.00 Build 0)  -->
<svg version="1.1" id="Layer_1" xmlns="http://www.w3.org/2000/svg" xmlns:xlink="http://www.w3.org/1999/xlink" x="0px" y="0px"
	 viewBox="0 0 700 700" style="enable-background:new 0 0 700 700;" xml:space="preserve">
<style type="text/css">
	.st0{fill:#343F91;}
</style>
<g>
	<path class="st0" d="M571.3,106.8H128.7c-24.7,0-44.7,20.1-44.7,44.7v257c0,24.7,20.1,44.7,44.7,44.7h442.6
		c24.7,0,44.7-20.1,44.7-44.7l0-257C616,126.8,595.9,106.8,571.3,106.8L571.3,106.8z M556.7,135.4L374,263.9
		c-14.3,10.1-33.6,10.1-47.9,0L143.3,135.4H556.7z M112.6,407.5v-256c0-0.9,0.1-1.8,0.2-2.7l151.8,106.8L112.6,407.5z M135.8,424.6
		l152.5-152.3l21.3,15c12.1,8.5,26.2,12.8,40.4,12.8c14.2,0,28.3-4.3,40.4-12.8l21.3-15l152.5,152.3H135.8z M587.4,407.5l-152-151.8
		l151.8-106.8c0.1,0.9,0.2,1.8,0.2,2.7L587.4,407.5z"/>
</g>
</svg>
